<svg width="1031" height="232" viewBox="0 0 1031 232" fill="none" xmlns="http://www.w3.org/2000/svg">
<path d="M124.658 231.14C108.958 231.14 94.4093 228.314 81.012 222.662C67.6147 216.801 55.892 208.741 45.844 198.484C36.0053 188.227 28.3647 176.295 22.922 162.688C17.4793 149.081 14.758 134.533 14.758 119.042C14.758 103.342 17.4793 88.6887 22.922 75.082C28.3647 61.4753 36.0053 49.648 45.844 39.6C55.892 29.3427 67.51 21.388 80.698 15.736C94.0953 9.87465 108.644 6.94398 124.344 6.94398C141.509 6.94398 156.581 9.87465 169.56 15.736C182.539 21.5973 194.052 29.552 204.1 39.6L183.69 60.01C176.782 52.2647 168.304 46.194 158.256 41.798C148.417 37.402 137.113 35.204 124.344 35.204C112.831 35.204 102.259 37.2973 92.63 41.484C83.0007 45.4613 74.6273 51.218 67.51 58.754C60.3927 66.29 54.8453 75.1867 50.868 85.444C47.1 95.7013 45.216 106.901 45.216 119.042C45.216 131.183 47.1 142.383 50.868 152.64C54.8453 162.897 60.3927 171.794 67.51 179.33C74.6273 186.866 83.0007 192.727 92.63 196.914C102.259 200.891 112.831 202.88 124.344 202.88C137.951 202.88 149.778 200.682 159.826 196.286C169.874 191.681 178.352 185.505 185.26 177.76L205.67 197.856C195.622 208.323 183.795 216.487 170.188 222.348C156.791 228.209 141.614 231.14 124.658 231.14ZM268.431 231.14C253.777 231.14 240.589 227.686 228.867 220.778C217.144 213.87 207.829 204.555 200.921 192.832C194.013 180.9 190.559 167.607 190.559 152.954C190.559 138.51 194.013 125.531 200.921 114.018C207.829 102.295 217.144 92.98 228.867 86.072C240.589 79.164 253.777 75.71 268.431 75.71C282.875 75.71 295.958 79.164 307.681 86.072C319.613 92.7707 329.033 101.981 335.941 113.704C342.849 125.427 346.303 138.51 346.303 152.954C346.303 167.607 342.849 180.9 335.941 192.832C329.033 204.555 319.613 213.87 307.681 220.778C295.958 227.686 282.875 231.14 268.431 231.14ZM268.431 203.822C277.851 203.822 286.224 201.624 293.551 197.228C300.877 192.832 306.634 186.866 310.821 179.33C315.007 171.585 317.101 162.793 317.101 152.954C317.101 143.325 314.903 134.742 310.507 127.206C306.32 119.67 300.563 113.809 293.237 109.622C286.119 105.226 277.851 103.028 268.431 103.028C259.011 103.028 250.637 105.226 243.311 109.622C235.984 113.809 230.227 119.67 226.041 127.206C221.854 134.742 219.761 143.325 219.761 152.954C219.761 162.793 221.854 171.585 226.041 179.33C230.227 186.866 235.984 192.832 243.311 197.228C250.637 201.624 259.011 203.822 268.431 203.822ZM406.718 231.14C394.577 231.14 383.587 228.419 373.748 222.976C364.119 217.324 356.583 209.579 351.14 199.74C345.698 189.901 342.976 178.493 342.976 165.514V78.85H371.236V164.258C371.236 172.422 372.597 179.539 375.318 185.61C378.249 191.471 382.436 195.972 387.878 199.112C393.321 202.252 399.706 203.822 407.032 203.822C418.127 203.822 426.814 200.368 433.094 193.46C439.374 186.343 442.514 176.609 442.514 164.258V78.85H470.774V165.514C470.774 178.493 468.053 189.901 462.61 199.74C457.168 209.579 449.632 217.324 440.002 222.976C430.582 228.419 419.488 231.14 406.718 231.14ZM582.755 228V141.022C582.755 129.718 579.196 120.403 572.079 113.076C564.961 105.749 555.751 102.086 544.447 102.086C536.911 102.086 530.212 103.761 524.351 107.11C518.489 110.459 513.884 115.065 510.535 120.926C507.185 126.787 505.511 133.486 505.511 141.022L493.893 134.428C493.893 123.124 496.405 113.076 501.429 104.284C506.453 95.492 513.465 88.584 522.467 83.56C531.468 78.3267 541.621 75.71 552.925 75.71C564.229 75.71 574.172 78.536 582.755 84.188C591.547 89.84 598.455 97.2713 603.479 106.482C608.503 115.483 611.015 125.113 611.015 135.37V228H582.755ZM477.251 228V78.85H505.511V228H477.251ZM638.958 228V16.364H667.218V228H638.958ZM602.22 104.598V78.85H703.956V104.598H602.22ZM700.554 228V78.85H728.814V228H700.554ZM714.684 49.02C709.45 49.02 705.159 47.3453 701.81 43.996C698.46 40.4373 696.786 36.0413 696.786 30.808C696.786 25.784 698.46 21.5973 701.81 18.248C705.159 14.6893 709.45 12.91 714.684 12.91C719.917 12.91 724.208 14.6893 727.558 18.248C730.907 21.5973 732.582 25.784 732.582 30.808C732.582 36.0413 730.907 40.4373 727.558 43.996C724.208 47.3453 719.917 49.02 714.684 49.02ZM844.564 228V141.022C844.564 129.718 841.006 120.403 833.888 113.076C826.771 105.749 817.56 102.086 806.256 102.086C798.72 102.086 792.022 103.761 786.16 107.11C780.299 110.459 775.694 115.065 772.344 120.926C768.995 126.787 767.32 133.486 767.32 141.022L755.702 134.428C755.702 123.124 758.214 113.076 763.238 104.284C768.262 95.492 775.275 88.584 784.276 83.56C793.278 78.3267 803.43 75.71 814.734 75.71C826.038 75.71 835.982 78.536 844.564 84.188C853.356 89.84 860.264 97.2713 865.288 106.482C870.312 115.483 872.824 125.113 872.824 135.37V228H844.564ZM739.06 228V78.85H767.32V228H739.06Z" fill="black"/>
<rect x="943" y="227.873" width="146.873" height="27.6003" transform="rotate(-90 943 227.873)" fill="black"/>
<rect x="884" y="140" width="146.873" height="27.6003" fill="black"/>
</svg>
